<svg xmlns="http://www.w3.org/2000/svg" xmlns:xlink="http://www.w3.org/1999/xlink" viewBox="0 0 800 800" width="800" height="800" preserveAspectRatio="xMidYMid meet" style="width: 100%; height: 100%; transform: translate3d(0px, 0px, 0px); content-visibility: visible;"><defs><clipPath id="__lottie_element_3912"><rect width="800" height="800" x="0" y="0"></rect></clipPath></defs><g clip-path="url(#__lottie_element_3912)"><g transform="matrix(1.0492364168167114,0,0,1.0492364168167114,400,400)" opacity="0.7174082702278014" style="display: block;"><g opacity="1" transform="matrix(1.0383000373840332,0,0,1.0383000373840332,-1.3279999494552612,0.39100000262260437)"><path stroke-linecap="butt" stroke-linejoin="miter" fill-opacity="0" stroke-miterlimit="4" stroke="rgb(255,60,0)" stroke-opacity="1" stroke-width="6" d=" M0,-248.75 C137.28512573242188,-248.75 248.75,-137.28512573242188 248.75,0 C248.75,137.28512573242188 137.28512573242188,248.75 0,248.75 C-137.28512573242188,248.75 -248.75,137.28512573242188 -248.75,0 C-248.75,-137.28512573242188 -137.28512573242188,-248.75 0,-248.75z"></path></g></g><g transform="matrix(1.289135456085205,0,0,1.289135456085205,400,400)" opacity="0.21740823918087074" style="display: block;"><g opacity="1" transform="matrix(1.0383000373840332,0,0,1.0383000373840332,-1.3279999494552612,0.39100000262260437)"><path stroke-linecap="butt" stroke-linejoin="miter" fill-opacity="0" stroke-miterlimit="4" stroke="rgb(255,60,0)" stroke-opacity="1" stroke-width="6" d=" M0,-248.75 C137.28512573242188,-248.75 248.75,-137.28512573242188 248.75,0 C248.75,137.28512573242188 137.28512573242188,248.75 0,248.75 C-137.28512573242188,248.75 -248.75,137.28512573242188 -248.75,0 C-248.75,-137.28512573242188 -137.28512573242188,-248.75 0,-248.75z"></path></g></g><g transform="matrix(1.0468800067901611,0,0,1.0468800067901611,-18.75201416015625,-18.75201416015625)" opacity="1" style="display: block;"><g opacity="1" transform="matrix(1,0,0,1,400,400)"><path fill="rgb(255,60,0)" fill-opacity="1" d=" M0,-256 C141.38499450683594,-256 256,-141.38499450683594 256,0 C256,141.38499450683594 141.38499450683594,256 0,256 C-141.38499450683594,256 -256,141.38499450683594 -256,0 C-256,-141.38499450683594 -141.38499450683594,-256 0,-256z"></path></g></g><g transform="matrix(0.4210599958896637,0,0,0.4210599958896637,367.99945068359375,249.15536499023438)" opacity="1" style="display: block;"><g opacity="1" transform="matrix(1,0,0,1,76,260.7584228515625)"><path fill="rgb(255,255,255)" fill-opacity="1" d=" M3.4769999980926514,192 C46.19599914550781,192 76,230.4929962158203 76,265.03900146484375 C76,305.5069885253906 46.19599914550781,344 3.4769999980926514,344 C-46.196998596191406,344 -76,305.5069885253906 -76,265.03900146484375 C-76,230.4929962158203 -46.196998596191406,192 3.4769999980926514,192z M23.606000900268555,-344 C42.715999603271484,-344 59.04199981689453,-328.5880126953125 59.95899963378906,-310.093994140625 C59.95899963378906,-310.093994140625 60,-308.4540100097656 60,-308.4540100097656 C60,-308.4540100097656 60,60.45399856567383 60,60.45399856567383 C60,79.11900329589844 44.220001220703125,95.06400299072266 25.28499984741211,95.95999908447266 C25.28499984741211,95.95999908447266 23.606000900268555,96 23.606000900268555,96 C23.606000900268555,96 -23.60700035095215,96 -23.60700035095215,96 C-42.71699905395508,96 -59.04199981689453,80.58799743652344 -59.959999084472656,62.09400177001953 C-59.959999084472656,62.09400177001953 -60,60.45399856567383 -60,60.45399856567383 C-60,60.45399856567383 -60,-308.4540100097656 -60,-308.4540100097656 C-60,-327.1189880371094 -44.22100067138672,-343.0639953613281 -25.285999298095703,-343.9599914550781 C-25.285999298095703,-343.9599914550781 -23.60700035095215,-344 -23.60700035095215,-344 C-23.60700035095215,-344 23.606000900268555,-344 23.606000900268555,-344z"></path></g></g></g></svg>