<svg xmlns="http://www.w3.org/2000/svg" xmlns:xlink="http://www.w3.org/1999/xlink" viewBox="0 0 480 270" width="480" height="270" preserveAspectRatio="xMidYMid meet" style="width: 100%; height: 100%; transform: translate3d(0px, 0px, 0px); content-visibility: visible;"><defs><clipPath id="__lottie_element_3035"><rect width="480" height="270" x="0" y="0"></rect></clipPath><clipPath id="__lottie_element_3037"><path d="M0,0 L1920,0 L1920,1080 L0,1080z"></path></clipPath></defs><g clip-path="url(#__lottie_element_3035)"><g clip-path="url(#__lottie_element_3037)" transform="matrix(0.2296299934387207,0,0,0.2296299934387207,19.555206298828125,10.999801635742188)" opacity="1" style="display: block;"><g transform="matrix(1.0000001192092896,0,0,0.9999998807907104,516.8829956054688,334.1240234375)" opacity="1" style="display: block;"><g opacity="1" transform="matrix(1,0,0,1,128.29200744628906,155.11199951171875)"><path fill="rgb(83,118,255)" fill-opacity="1" d=" M-128.04200744628906,98.6259994506836 C-128.04200744628906,98.6259994506836 -128.04200744628906,36.768001556396484 -128.04200744628906,36.768001556396484 C-128.04200744628906,36.768001556396484 11.680000305175781,-154.86199951171875 11.680000305175781,-154.86199951171875 C11.680000305175781,-154.86199951171875 91.27300262451172,-154.86199951171875 91.27300262451172,-154.86199951171875 C91.27300262451172,-154.86199951171875 91.27300262451172,34.17300033569336 91.27300262451172,34.17300033569336 C91.27300262451172,34.17300033569336 128.04200744628906,34.17300033569336 128.04200744628906,34.17300033569336 C128.04200744628906,34.17300033569336 128.04200744628906,98.6259994506836 128.04200744628906,98.6259994506836 C128.04200744628906,98.6259994506836 91.27300262451172,98.6259994506836 91.27300262451172,98.6259994506836 C91.27300262451172,98.6259994506836 91.27300262451172,154.86199951171875 91.27300262451172,154.86199951171875 C91.27300262451172,154.86199951171875 16.437999725341797,154.86199951171875 16.437999725341797,154.86199951171875 C16.437999725341797,154.86199951171875 16.437999725341797,98.6259994506836 16.437999725341797,98.6259994506836 C16.437999725341797,98.6259994506836 -128.04200744628906,98.6259994506836 -128.04200744628906,98.6259994506836z M22.493999481201172,-69.21199798583984 C22.493999481201172,-69.21199798583984 -52.77399826049805,34.17300033569336 -52.77399826049805,34.17300033569336 C-52.77399826049805,34.17300033569336 22.493999481201172,34.17300033569336 22.493999481201172,34.17300033569336 C22.493999481201172,34.17300033569336 22.493999481201172,-69.21199798583984 22.493999481201172,-69.21199798583984z"></path></g></g><g transform="matrix(1.0000001192092896,0,0,0.9999998807907104,1113.9439697265625,334.1240234375)" opacity="1" style="display: block;"><g opacity="1" transform="matrix(1,0,0,1,128.29200744628906,155.11199951171875)"><path fill="rgb(83,118,255)" fill-opacity="1" d=" M-128.04200744628906,98.6259994506836 C-128.04200744628906,98.6259994506836 -128.04200744628906,36.768001556396484 -128.04200744628906,36.768001556396484 C-128.04200744628906,36.768001556396484 11.680000305175781,-154.86199951171875 11.680000305175781,-154.86199951171875 C11.680000305175781,-154.86199951171875 91.27300262451172,-154.86199951171875 91.27300262451172,-154.86199951171875 C91.27300262451172,-154.86199951171875 91.27300262451172,34.17300033569336 91.27300262451172,34.17300033569336 C91.27300262451172,34.17300033569336 128.04200744628906,34.17300033569336 128.04200744628906,34.17300033569336 C128.04200744628906,34.17300033569336 128.04200744628906,98.6259994506836 128.04200744628906,98.6259994506836 C128.04200744628906,98.6259994506836 91.27300262451172,98.6259994506836 91.27300262451172,98.6259994506836 C91.27300262451172,98.6259994506836 91.27300262451172,154.86199951171875 91.27300262451172,154.86199951171875 C91.27300262451172,154.86199951171875 16.437999725341797,154.86199951171875 16.437999725341797,154.86199951171875 C16.437999725341797,154.86199951171875 16.437999725341797,98.6259994506836 16.437999725341797,98.6259994506836 C16.437999725341797,98.6259994506836 -128.04200744628906,98.6259994506836 -128.04200744628906,98.6259994506836z M22.493999481201172,-69.21199798583984 C22.493999481201172,-69.21199798583984 -52.77399826049805,34.17300033569336 -52.77399826049805,34.17300033569336 C-52.77399826049805,34.17300033569336 22.493999481201172,34.17300033569336 22.493999481201172,34.17300033569336 C22.493999481201172,34.17300033569336 22.493999481201172,-69.21199798583984 22.493999481201172,-69.21199798583984z"></path></g></g><g transform="matrix(1,0,0,1,833.5259399414062,508.5721435546875)" opacity="1" style="display: block;"><g opacity="1" transform="matrix(1,0,0,1,127.29900360107422,142.5399932861328)"><path fill="rgb(83,118,255)" fill-opacity="1" d=" M0,-142.29100036621094 C-70.16699981689453,-142.29100036621094 -127.04900360107422,-85.40899658203125 -127.04900360107422,-15.241999626159668 C-127.04900360107422,54.92499923706055 -70.16699981689453,142.2899932861328 0,142.2899932861328 C70.16699981689453,142.2899932861328 127.04900360107422,54.92499923706055 127.04900360107422,-15.241999626159668 C127.04900360107422,-85.40899658203125 70.16699981689453,-142.29100036621094 0,-142.29100036621094z M0,122.79100036621094 C-46.96799850463867,122.79100036621094 -85.04299926757812,64.31199645996094 -85.04299926757812,17.3439998626709 C-85.04299926757812,-29.625 -46.96799850463867,-67.69999694824219 0,-67.69999694824219 C46.96799850463867,-67.69999694824219 85.04299926757812,-29.625 85.04299926757812,17.3439998626709 C85.04299926757812,64.31199645996094 46.96799850463867,122.79100036621094 0,122.79100036621094z"></path></g></g><g transform="matrix(1,0,0,1,882.0099487304688,763.631103515625)" opacity="1" style="display: block;"><g opacity="1" transform="matrix(1,0,0,1,67.5,116)"><path stroke-linecap="butt" stroke-linejoin="miter" fill-opacity="0" stroke-miterlimit="10" stroke="rgb(83,118,255)" stroke-opacity="1" stroke-width="7" d=" M14.622074127197266,-95.64445495605469 C14.622074127197266,-95.64445495605469 19.338027954101562,-49.06900405883789 0,-12.5 C-22.17233657836914,48.284542083740234 -8.070226669311523,120.01170349121094 -8.070226669311523,120.01170349121094"></path></g></g><g transform="matrix(1,0,0,1,901.79296875,659.2291259765625)" opacity="1" style="display: block;"><g opacity="1" transform="matrix(1,0,0,1,11.25,17.924999237060547)"><path fill="rgb(221,31,55)" fill-opacity="1" d=" M-2.450000047683716,-10.875 C-2.450000047683716,-10.875 -2.450000047683716,-3.4760000705718994 -2.450000047683716,-3.4760000705718994 C-2.450000047683716,-3.4760000705718994 9.5,-3.4760000705718994 9.5,-3.4760000705718994 C9.5,-3.4760000705718994 9.5,2.9749999046325684 9.5,2.9749999046325684 C9.5,2.9749999046325684 -2.450000047683716,2.9749999046325684 -2.450000047683716,2.9749999046325684 C-2.450000047683716,2.9749999046325684 -2.450000047683716,10.824999809265137 -2.450000047683716,10.824999809265137 C-2.450000047683716,10.824999809265137 11,10.824999809265137 11,10.824999809265137 C11,10.824999809265137 11,17.674999237060547 11,17.674999237060547 C11,17.674999237060547 -11,17.674999237060547 -11,17.674999237060547 C-11,17.674999237060547 -11,-17.674999237060547 -11,-17.674999237060547 C-11,-17.674999237060547 11,-17.674999237060547 11,-17.674999237060547 C11,-17.674999237060547 11,-10.875 11,-10.875 C11,-10.875 -2.450000047683716,-10.875 -2.450000047683716,-10.875z"></path></g><g opacity="1" transform="matrix(1,0,0,1,36.17499923706055,21.5)"><path fill="rgb(221,31,55)" fill-opacity="1" d=" M3.5999999046325684,-12.600000381469727 C5.2829999923706055,-13.600000381469727 7.107999801635742,-14.100000381469727 9.074999809265137,-14.100000381469727 C9.074999809265137,-14.100000381469727 9.074999809265137,-4.949999809265137 9.074999809265137,-4.949999809265137 C9.074999809265137,-4.949999809265137 6.625,-4.949999809265137 6.625,-4.949999809265137 C4.357999801635742,-4.949999809265137 2.5999999046325684,-4.466000080108643 1.350000023841858,-3.499000072479248 C0.10000000149011612,-2.5329999923706055 -0.5249999761581421,-0.8999999761581421 -0.5249999761581421,1.399999976158142 C-0.5249999761581421,1.399999976158142 -0.5249999761581421,14.100000381469727 -0.5249999761581421,14.100000381469727 C-0.5249999761581421,14.100000381469727 -9.074999809265137,14.100000381469727 -9.074999809265137,14.100000381469727 C-9.074999809265137,14.100000381469727 -9.074999809265137,-13.800000190734863 -9.074999809265137,-13.800000190734863 C-9.074999809265137,-13.800000190734863 -0.5249999761581421,-13.800000190734863 -0.5249999761581421,-13.800000190734863 C-0.5249999761581421,-13.800000190734863 -0.5249999761581421,-8.550000190734863 -0.5249999761581421,-8.550000190734863 C0.5410000085830688,-10.24899959564209 1.9160000085830688,-11.600000381469727 3.5999999046325684,-12.600000381469727z"></path></g><g opacity="1" transform="matrix(1,0,0,1,57.92499923706055,21.5)"><path fill="rgb(221,31,55)" fill-opacity="1" d=" M3.5999999046325684,-12.600000381469727 C5.2829999923706055,-13.600000381469727 7.107999801635742,-14.100000381469727 9.074999809265137,-14.100000381469727 C9.074999809265137,-14.100000381469727 9.074999809265137,-4.949999809265137 9.074999809265137,-4.949999809265137 C9.074999809265137,-4.949999809265137 6.625,-4.949999809265137 6.625,-4.949999809265137 C4.357999801635742,-4.949999809265137 2.5999999046325684,-4.466000080108643 1.350000023841858,-3.499000072479248 C0.10000000149011612,-2.5329999923706055 -0.5249999761581421,-0.8999999761581421 -0.5249999761581421,1.399999976158142 C-0.5249999761581421,1.399999976158142 -0.5249999761581421,14.100000381469727 -0.5249999761581421,14.100000381469727 C-0.5249999761581421,14.100000381469727 -9.074999809265137,14.100000381469727 -9.074999809265137,14.100000381469727 C-9.074999809265137,14.100000381469727 -9.074999809265137,-13.800000190734863 -9.074999809265137,-13.800000190734863 C-9.074999809265137,-13.800000190734863 -0.5249999761581421,-13.800000190734863 -0.5249999761581421,-13.800000190734863 C-0.5249999761581421,-13.800000190734863 -0.5249999761581421,-8.550000190734863 -0.5249999761581421,-8.550000190734863 C0.5410000085830688,-10.24899959564209 1.9160000085830688,-11.600000381469727 3.5999999046325684,-12.600000381469727z"></path></g><g opacity="1" transform="matrix(1,0,0,1,83.625,21.649999618530273)"><path fill="rgb(221,31,55)" fill-opacity="1" d=" M7.449999809265137,-12.574999809265137 C9.631999969482422,-11.425000190734863 11.350000381469727,-9.767000198364258 12.600000381469727,-7.599999904632568 C13.850000381469727,-5.433000087738037 14.475000381469727,-2.8989999294281006 14.475000381469727,0 C14.475000381469727,2.9000000953674316 13.850000381469727,5.434000015258789 12.600000381469727,7.60099983215332 C11.350000381469727,9.767999649047852 9.631999969482422,11.425000190734863 7.449999809265137,12.574999809265137 C5.265999794006348,13.72599983215332 2.7920000553131104,14.300000190734863 0.02500000037252903,14.300000190734863 C-2.743000030517578,14.300000190734863 -5.224999904632568,13.72599983215332 -7.425000190734863,12.574999809265137 C-9.625,11.425000190734863 -11.350000381469727,9.767999649047852 -12.600000381469727,7.60099983215332 C-13.850000381469727,5.434000015258789 -14.475000381469727,2.9000000953674316 -14.475000381469727,0 C-14.475000381469727,-2.8989999294281006 -13.850000381469727,-5.433000087738037 -12.600000381469727,-7.599999904632568 C-11.350000381469727,-9.767000198364258 -9.625,-11.425000190734863 -7.425000190734863,-12.574999809265137 C-5.224999904632568,-13.725000381469727 -2.743000030517578,-14.300000190734863 0.02500000037252903,-14.300000190734863 C2.7920000553131104,-14.300000190734863 5.265999794006348,-13.725000381469727 7.449999809265137,-12.574999809265137z M-4.099999904632568,-5.125 C-5.2170000076293945,-3.940999984741211 -5.775000095367432,-2.2320001125335693 -5.775000095367432,0 C-5.775000095367432,2.2330000400543213 -5.2170000076293945,3.934000015258789 -4.099999904632568,5.10099983215332 C-2.9839999675750732,6.26800012588501 -1.6089999675750732,6.85099983215332 0.02500000037252903,6.85099983215332 C1.6579999923706055,6.85099983215332 3.0250000953674316,6.26800012588501 4.125,5.10099983215332 C5.224999904632568,3.934000015258789 5.775000095367432,2.2330000400543213 5.775000095367432,0 C5.775000095367432,-2.2320001125335693 5.224999904632568,-3.940999984741211 4.125,-5.125 C3.0250000953674316,-6.308000087738037 1.6579999923706055,-6.89900016784668 0.02500000037252903,-6.89900016784668 C-1.6089999675750732,-6.89900016784668 -2.9839999675750732,-6.308000087738037 -4.099999904632568,-5.125z"></path></g><g opacity="1" transform="matrix(1,0,0,1,111.625,21.5)"><path fill="rgb(221,31,55)" fill-opacity="1" d=" M3.5989999771118164,-12.600000381469727 C5.2829999923706055,-13.600000381469727 7.10699987411499,-14.100000381469727 9.074999809265137,-14.100000381469727 C9.074999809265137,-14.100000381469727 9.074999809265137,-4.949999809265137 9.074999809265137,-4.949999809265137 C9.074999809265137,-4.949999809265137 6.624000072479248,-4.949999809265137 6.624000072479248,-4.949999809265137 C4.35699987411499,-4.949999809265137 2.5989999771118164,-4.466000080108643 1.3489999771118164,-3.499000072479248 C0.0989999994635582,-2.5329999923706055 -0.5260000228881836,-0.8999999761581421 -0.5260000228881836,1.399999976158142 C-0.5260000228881836,1.399999976158142 -0.5260000228881836,14.100000381469727 -0.5260000228881836,14.100000381469727 C-0.5260000228881836,14.100000381469727 -9.074999809265137,14.100000381469727 -9.074999809265137,14.100000381469727 C-9.074999809265137,14.100000381469727 -9.074999809265137,-13.800000190734863 -9.074999809265137,-13.800000190734863 C-9.074999809265137,-13.800000190734863 -0.5260000228881836,-13.800000190734863 -0.5260000228881836,-13.800000190734863 C-0.5260000228881836,-13.800000190734863 -0.5260000228881836,-8.550000190734863 -0.5260000228881836,-8.550000190734863 C0.5400000214576721,-10.24899959564209 1.9149999618530273,-11.600000381469727 3.5989999771118164,-12.600000381469727z"></path></g></g></g></g></svg>