<svg xmlns="http://www.w3.org/2000/svg" xmlns:xlink="http://www.w3.org/1999/xlink" viewBox="0 0 500 500" width="500" height="500" preserveAspectRatio="xMidYMid meet" style="width: 100%; height: 100%; transform: translate3d(0px, 0px, 0px); content-visibility: visible;"><defs><clipPath id="__lottie_element_4286"><rect width="500" height="500" x="0" y="0"></rect></clipPath><g id="__lottie_element_4287"><g transform="matrix(0.7109754681587219,-0.05235337093472481,0.04662740230560303,0.7982851266860962,67.89804077148438,336.59381103515625)" opacity="1" fill="rgb(22,101,174)" font-size="60" font-family="Bebas Neue" font-style="normal" font-weight="400" aria-label="!" style="display: block;"><g stroke-linecap="butt" stroke-linejoin="round" stroke-miterlimit="4" transform="matrix(1,0,0,1,0,0)" opacity="1" style="display: inherit;"><g><g transform="matrix(1,0,0,1,0,0)" opacity="1" style="display: block;"><path d=" M3.12,0 C3.12,0 9.48,0 9.48,0 C9.48,0 9.48,-6.36 9.48,-6.36 C9.48,-6.36 3.12,-6.36 3.12,-6.36 C3.12,-6.36 3.12,0 3.12,0z M3.84,-11.1 C3.84,-11.1 8.76,-11.1 8.76,-11.1 C8.76,-11.1 9.6,-24.48 9.6,-24.48 C9.6,-24.48 9.6,-42 9.6,-42 C9.6,-42 3,-42 3,-42 C3,-42 3,-24.48 3,-24.48 C3,-24.48 3.84,-11.1 3.84,-11.1z"></path><g opacity="1" transform="matrix(0.6000000238418579,0,0,0.6000000238418579,0,0)"></g></g></g></g></g></g><filter id="__lottie_element_4320" filterUnits="objectBoundingBox" x="0%" y="0%" width="100%" height="100%"><feComponentTransfer in="SourceGraphic"><feFuncA type="table" tableValues="1.0 0.0"></feFuncA></feComponentTransfer></filter><mask id="__lottie_element_4287_2" mask-type="alpha"><g filter="url(#__lottie_element_4320)"><rect width="500" height="500" x="0" y="0" fill="#ffffff" opacity="0"></rect><use xlink:href="#__lottie_element_4287"></use></g></mask></defs><g clip-path="url(#__lottie_element_4286)"><g transform="matrix(1,0,0,1,103,311)" opacity="1" fill="rgb(22,101,174)" font-size="202" font-family="Bebas Neue" font-style="normal" font-weight="400" aria-label="5" style="display: block;"><g stroke-linecap="butt" stroke-linejoin="round" stroke-miterlimit="4" transform="matrix(1,0,0,1,-0.0000015258789289873675,0)" opacity="1" style="display: inherit;"><g><g transform="matrix(1,0,0,1,0,0)" opacity="1" style="display: block;"><path d=" M40.8,2.02 C51.58,2.02 59.79,-1.04 65.45,-7.17 C71.1,-13.3 73.93,-22.08 73.93,-33.53 C73.93,-33.53 73.93,-65.45 73.93,-65.45 C73.93,-75.95 71.84,-83.96 67.67,-89.49 C63.49,-95.01 57.37,-97.77 49.29,-97.77 C40.67,-97.77 34.27,-94.33 30.1,-87.47 C30.1,-87.47 29.69,-87.47 29.69,-87.47 C29.69,-87.47 31.51,-121.2 31.51,-121.2 C31.51,-121.2 70.3,-121.2 70.3,-121.2 C70.3,-121.2 70.3,-141.4 70.3,-141.4 C70.3,-141.4 11.72,-141.4 11.72,-141.4 C11.72,-141.4 7.68,-62.42 7.68,-62.42 C7.68,-62.42 28.68,-62.42 28.68,-62.42 C28.68,-62.42 28.68,-63.63 28.68,-63.63 C28.68,-72.92 32.52,-77.57 40.2,-77.57 C47.87,-77.57 51.71,-72.92 51.71,-63.63 C51.71,-63.63 51.71,-31.92 51.71,-31.92 C51.71,-22.76 47.87,-18.18 40.2,-18.18 C32.52,-18.18 28.68,-22.76 28.68,-31.92 C28.68,-31.92 28.68,-44.64 28.68,-44.64 C28.68,-44.64 7.68,-44.64 7.68,-44.64 C7.68,-44.64 7.68,-33.53 7.68,-33.53 C7.68,-22.08 10.5,-13.3 16.16,-7.17 C21.82,-1.04 30.03,2.02 40.8,2.02z"></path><g opacity="1" transform="matrix(2.0199999809265137,0,0,2.0199999809265137,0,0)"></g></g></g></g></g><g transform="matrix(1,0,0,1,305,311)" opacity="1" fill="rgb(22,101,174)" font-size="202" font-family="Bebas Neue" font-style="normal" font-weight="400" aria-label="0" style="display: block;"><g stroke-linecap="butt" stroke-linejoin="round" stroke-miterlimit="4" transform="matrix(1,0,0,1,-0.0000015258789289873675,0)" opacity="1" style="display: inherit;"><g><g transform="matrix(1,0,0,1,0,0)" opacity="1" style="display: block;"><path d=" M40.4,-18.18 C32.72,-18.18 28.89,-22.83 28.89,-32.12 C28.89,-32.12 28.89,-109.28 28.89,-109.28 C28.89,-118.57 32.72,-123.22 40.4,-123.22 C48.08,-123.22 51.91,-118.57 51.91,-109.28 C51.91,-109.28 51.91,-32.12 51.91,-32.12 C51.91,-22.83 48.08,-18.18 40.4,-18.18z M40.4,2.02 C51.31,2.02 59.66,-1.08 65.45,-7.27 C71.24,-13.47 74.13,-22.22 74.13,-33.53 C74.13,-33.53 74.13,-107.87 74.13,-107.87 C74.13,-119.18 71.24,-127.93 65.45,-134.13 C59.66,-140.32 51.31,-143.42 40.4,-143.42 C29.49,-143.42 21.14,-140.32 15.35,-134.13 C9.56,-127.93 6.67,-119.18 6.67,-107.87 C6.67,-107.87 6.67,-33.53 6.67,-33.53 C6.67,-22.22 9.56,-13.47 15.35,-7.27 C21.14,-1.08 29.49,2.02 40.4,2.02z"></path><g opacity="1" transform="matrix(2.0199999809265137,0,0,2.0199999809265137,0,0)"></g></g></g></g></g><g transform="matrix(1,0,0,1,204.40399169921875,311)" opacity="1" fill="rgb(22,101,174)" font-size="202" font-family="Bebas Neue" font-style="normal" font-weight="400" aria-label="0" style="display: block;"><g stroke-linecap="butt" stroke-linejoin="round" stroke-miterlimit="4" transform="matrix(1,0,0,1,-0.0000015258789289873675,0)" opacity="1" style="display: inherit;"><g><g transform="matrix(1,0,0,1,0,0)" opacity="1" style="display: block;"><path d=" M40.4,-18.18 C32.72,-18.18 28.89,-22.83 28.89,-32.12 C28.89,-32.12 28.89,-109.28 28.89,-109.28 C28.89,-118.57 32.72,-123.22 40.4,-123.22 C48.08,-123.22 51.91,-118.57 51.91,-109.28 C51.91,-109.28 51.91,-32.12 51.91,-32.12 C51.91,-22.83 48.08,-18.18 40.4,-18.18z M40.4,2.02 C51.31,2.02 59.66,-1.08 65.45,-7.27 C71.24,-13.47 74.13,-22.22 74.13,-33.53 C74.13,-33.53 74.13,-107.87 74.13,-107.87 C74.13,-119.18 71.24,-127.93 65.45,-134.13 C59.66,-140.32 51.31,-143.42 40.4,-143.42 C29.49,-143.42 21.14,-140.32 15.35,-134.13 C9.56,-127.93 6.67,-119.18 6.67,-107.87 C6.67,-107.87 6.67,-33.53 6.67,-33.53 C6.67,-22.22 9.56,-13.47 15.35,-7.27 C21.14,-1.08 29.49,2.02 40.4,2.02z"></path><g opacity="1" transform="matrix(2.0199999809265137,0,0,2.0199999809265137,0,0)"></g></g></g></g></g><g transform="matrix(-0.4227374196052551,0.9149287939071655,-0.9149287939071655,-0.4227374196052551,87.14054107666016,586.7057495117188)" opacity="1" style="display: block;"><g opacity="1" transform="matrix(1,0,0,1,-169,96)"><path fill="rgb(22,101,174)" fill-opacity="1" d=" M3.9998865127563477,6.999767780303955 C3.9998865127563477,6.999767780303955 -4.062033653259277,6.9638872146606445 -4.062033653259277,6.9638872146606445 C-4.062033653259277,6.9638872146606445 -8.061920166015625,-0.03588053584098816 -8.061920166015625,-0.03588053584098816 C-8.061920166015625,-0.03588053584098816 -3.9998865127563477,-6.999767780303955 -3.9998865127563477,-6.999767780303955 C-3.9998865127563477,-6.999767780303955 4.062033653259277,-6.9638872146606445 4.062033653259277,-6.9638872146606445 C4.062033653259277,-6.9638872146606445 8.061920166015625,0.03588053584098816 8.061920166015625,0.03588053584098816 C8.061920166015625,0.03588053584098816 3.9998865127563477,6.999767780303955 3.9998865127563477,6.999767780303955z"></path></g></g><g transform="matrix(-0.4227374196052551,0.9149287939071655,-0.9149287939071655,-0.4227374196052551,436.6405334472656,632.7057495117188)" opacity="1" style="display: block;"><g opacity="1" transform="matrix(1,0,0,1,-169,96)"><path fill="rgb(22,101,174)" fill-opacity="1" d=" M3.9998865127563477,6.999767780303955 C3.9998865127563477,6.999767780303955 -4.062033653259277,6.9638872146606445 -4.062033653259277,6.9638872146606445 C-4.062033653259277,6.9638872146606445 -8.061920166015625,-0.03588053584098816 -8.061920166015625,-0.03588053584098816 C-8.061920166015625,-0.03588053584098816 -3.9998865127563477,-6.999767780303955 -3.9998865127563477,-6.999767780303955 C-3.9998865127563477,-6.999767780303955 4.062033653259277,-6.9638872146606445 4.062033653259277,-6.9638872146606445 C4.062033653259277,-6.9638872146606445 8.061920166015625,0.03588053584098816 8.061920166015625,0.03588053584098816 C8.061920166015625,0.03588053584098816 3.9998865127563477,6.999767780303955 3.9998865127563477,6.999767780303955z"></path></g></g><g transform="matrix(-0.5066247582435608,1.0964857339859009,-1.0964857339859009,-0.5066247582435608,269.6430358886719,324.44207763671875)" opacity="1" style="display: block;"><g opacity="1" transform="matrix(1,0,0,1,-169,96)"><path fill="rgb(22,101,174)" fill-opacity="1" d=" M3.9998865127563477,6.999767780303955 C3.9998865127563477,6.999767780303955 -4.062033653259277,6.9638872146606445 -4.062033653259277,6.9638872146606445 C-4.062033653259277,6.9638872146606445 -8.061920166015625,-0.03588053584098816 -8.061920166015625,-0.03588053584098816 C-8.061920166015625,-0.03588053584098816 -3.9998865127563477,-6.999767780303955 -3.9998865127563477,-6.999767780303955 C-3.9998865127563477,-6.999767780303955 4.062033653259277,-6.9638872146606445 4.062033653259277,-6.9638872146606445 C4.062033653259277,-6.9638872146606445 8.061920166015625,0.03588053584098816 8.061920166015625,0.03588053584098816 C8.061920166015625,0.03588053584098816 3.9998865127563477,6.999767780303955 3.9998865127563477,6.999767780303955z"></path></g></g><g transform="matrix(0.04239468649029732,1.0069777965545654,-1.0069777965545654,0.04239468649029732,166.83456420898438,286.609375)" opacity="1" style="display: block;"><g opacity="1" transform="matrix(1,0,0,1,-169,96)"><path fill="rgb(109,110,115)" fill-opacity="1" d=" M3.9998865127563477,6.999767780303955 C3.9998865127563477,6.999767780303955 -8.061920166015625,-0.03588053584098816 -8.061920166015625,-0.03588053584098816 C-8.061920166015625,-0.03588053584098816 4.062033653259277,-6.9638872146606445 4.062033653259277,-6.9638872146606445 C4.062033653259277,-6.9638872146606445 3.9998865127563477,6.999767780303955 3.9998865127563477,6.999767780303955z"></path></g></g><g transform="matrix(0.050807420164346695,1.2068008184432983,-1.2068008184432983,0.050807420164346695,373.4393310546875,614.5718383789062)" opacity="1" style="display: block;"><g opacity="1" transform="matrix(1,0,0,1,-169,96)"><path fill="rgb(109,110,115)" fill-opacity="1" d=" M3.9998865127563477,6.999767780303955 C3.9998865127563477,6.999767780303955 -8.061920166015625,-0.03588053584098816 -8.061920166015625,-0.03588053584098816 C-8.061920166015625,-0.03588053584098816 4.062033653259277,-6.9638872146606445 4.062033653259277,-6.9638872146606445 C4.062033653259277,-6.9638872146606445 3.9998865127563477,6.999767780303955 3.9998865127563477,6.999767780303955z"></path></g></g><g transform="matrix(0.04239468649029732,1.0069777965545654,-1.0069777965545654,0.04239468649029732,492.8345642089844,281.609375)" opacity="1" style="display: block;"><g opacity="1" transform="matrix(1,0,0,1,-169,96)"><path fill="rgb(109,110,115)" fill-opacity="1" d=" M3.9998865127563477,6.999767780303955 C3.9998865127563477,6.999767780303955 -8.061920166015625,-0.03588053584098816 -8.061920166015625,-0.03588053584098816 C-8.061920166015625,-0.03588053584098816 4.062033653259277,-6.9638872146606445 4.062033653259277,-6.9638872146606445 C4.062033653259277,-6.9638872146606445 3.9998865127563477,6.999767780303955 3.9998865127563477,6.999767780303955z"></path></g></g><g mask="url(#__lottie_element_4287_2)" style="display: block;"><g transform="matrix(0.890628457069397,0,0,1,194.4828643798828,224.5)" opacity="1"><g opacity="1" transform="matrix(1,0,0,1,-137.5,95.5)"><path fill="rgb(109,110,115)" fill-opacity="1" d=" M0,-26.5 C14.625349998474121,-26.5 26.5,-14.625349998474121 26.5,0 C26.5,14.625349998474121 14.625349998474121,26.5 0,26.5 C-14.625349998474121,26.5 -26.5,14.625349998474121 -26.5,0 C-26.5,-14.625349998474121 -14.625349998474121,-26.5 0,-26.5z"></path></g></g></g></g></svg>