<svg id="Layer_1" data-name="Layer 1" xmlns="http://www.w3.org/2000/svg" viewBox="0 0 146.64 87.97"><defs><style>.cls-1{fill:none;stroke:#32088c;}</style></defs><title>about_me</title><path class="cls-1" d="M41.3,32.39,54.55,66.74H49.64l-3-7.9H31.1l-3,7.9H23.15L36.39,32.39ZM33,53.92H44.71L38.86,38.78Z" transform="translate(-22.42 -30.91)"/><path class="cls-1" d="M82.53,62a4.61,4.61,0,0,1-.37,1.84,4.68,4.68,0,0,1-2.5,2.5,4.61,4.61,0,0,1-1.84.37H64.66a4.55,4.55,0,0,1-1.82-.37,4.68,4.68,0,0,1-2.5-2.5A4.61,4.61,0,0,1,60,62V31.41h4.69V45.73a4.72,4.72,0,0,1,2.92-4.16,4.65,4.65,0,0,1,1.8-.35h8.43a4.61,4.61,0,0,1,1.84.37,4.68,4.68,0,0,1,2.5,2.5,4.61,4.61,0,0,1,.37,1.84ZM64.66,45.95V62H77.81V45.95Z" transform="translate(-22.42 -30.91)"/><path class="cls-1" d="M112.44,62a4.61,4.61,0,0,1-.37,1.84,4.72,4.72,0,0,1-2.49,2.5,4.53,4.53,0,0,1-1.83.37H95.08a4.55,4.55,0,0,1-1.82-.37,4.68,4.68,0,0,1-2.5-2.5A4.61,4.61,0,0,1,90.38,62V45.95a4.61,4.61,0,0,1,.37-1.84,4.68,4.68,0,0,1,2.5-2.5,4.55,4.55,0,0,1,1.82-.37h12.67a4.53,4.53,0,0,1,1.83.37,4.72,4.72,0,0,1,2.49,2.5,4.61,4.61,0,0,1,.37,1.84ZM95.08,45.95V62h12.67V45.95Z" transform="translate(-22.42 -30.91)"/><path class="cls-1" d="M120.3,41.23H125V62h13.15V41.23h4.72V66.74h-4.72V62.43a4.4,4.4,0,0,1-.48,1.68,4.94,4.94,0,0,1-1,1.38,4.82,4.82,0,0,1-1.45.92,4.48,4.48,0,0,1-1.72.34H125a4.55,4.55,0,0,1-1.82-.37,4.68,4.68,0,0,1-2.5-2.5A4.61,4.61,0,0,1,120.3,62Z" transform="translate(-22.42 -30.91)"/><path class="cls-1" d="M149.23,41.23h6.23V33.37h4.72v7.86h8.38v4.72h-8.38V62h8.38v4.72h-8.38a4.55,4.55,0,0,1-1.82-.37,4.9,4.9,0,0,1-1.51-1A4.66,4.66,0,0,1,155.46,62V45.95h-6.23Z" transform="translate(-22.42 -30.91)"/><path class="cls-1" d="M119.46,118.38,106.65,93.21v25.17h-4.91V84h5.37l13.08,25.87L133.28,84h5.34v34.35h-4.89V93.21l-12.81,25.17Z" transform="translate(-22.42 -30.91)"/><path class="cls-1" d="M168.56,108H151.68v5.63h16.89v4.72H151.68a4.55,4.55,0,0,1-1.82-.37,4.68,4.68,0,0,1-2.5-2.5,4.61,4.61,0,0,1-.37-1.84V97.59a4.61,4.61,0,0,1,.37-1.84,4.68,4.68,0,0,1,2.5-2.5,4.55,4.55,0,0,1,1.82-.37h12.17a4.61,4.61,0,0,1,1.84.37,4.68,4.68,0,0,1,2.5,2.5,4.61,4.61,0,0,1,.37,1.84ZM151.68,97.59v5.72h12.17V97.59Z" transform="translate(-22.42 -30.91)"/></svg>