<svg id="Layer_1" data-name="Layer 1" xmlns="http://www.w3.org/2000/svg" viewBox="0 0 403.21 123.31"><defs><style>.cls-1{fill:#ee07f2;}.cls-2{fill:#a6034f;}</style></defs><title>Human_sun_dot</title><polygon class="cls-1" points="11.7 30.32 31.06 30.32 31.06 48.91 42.76 48.91 42.76 0 31.06 0 31.06 18.62 11.7 18.62 11.7 0 0 0 0 48.91 11.7 48.91 11.7 30.32"/><path class="cls-1" d="M491.43,479.48v-40h-11.7v37.21h-19.3V439.53h-11.7v40a8.83,8.83,0,0,0,.71,3.48,8.94,8.94,0,0,0,4.76,4.76,8.8,8.8,0,0,0,3.49.71h24.79a9,9,0,0,0,6.33-2.62,9,9,0,0,0,1.92-2.85A8.83,8.83,0,0,0,491.43,479.48Z" transform="translate(-400.32 -439.53)"/><polygon class="cls-1" points="148.87 48.91 148.87 0 137.69 0 122.82 29.36 107.97 0 96.76 0 96.76 48.91 108.46 48.91 108.46 25.79 120.22 48.91 125.44 48.91 137.21 25.79 137.21 48.91 148.87 48.91"/><path class="cls-1" d="M568.75,439.53,549.9,488.43H562l3.85-10h15.82l3.85,10h12.09l-18.86-48.91Zm1.57,27.22,3.42-8.8,3.4,8.8Z" transform="translate(-400.32 -439.53)"/><polygon class="cls-1" points="230.27 28.39 208.26 0 197.97 0 197.97 48.91 209.66 48.91 209.66 20.52 231.67 48.91 241.97 48.91 241.97 0 230.27 0 230.27 28.39"/><path class="cls-1" d="M702.87,442.15h0a9.37,9.37,0,0,0-2.8-1.89,8.7,8.7,0,0,0-3.51-.73H675.48a8.68,8.68,0,0,0-3.51.73,9.28,9.28,0,0,0-2.8,1.88,8.88,8.88,0,0,0-2.64,6.33v12.41a8.89,8.89,0,0,0,2.64,6.33,9.33,9.33,0,0,0,2.81,1.89,8.7,8.7,0,0,0,3.51.73h18.33v6.89H677.62v-5.57h-11.7v8.32a8.82,8.82,0,0,0,.71,3.48,9,9,0,0,0,4.76,4.76,8.8,8.8,0,0,0,3.49.71h21.68a8.82,8.82,0,0,0,3.48-.71,8.94,8.94,0,0,0,5.47-8.25V467.1a8.8,8.8,0,0,0-.7-3.48,8.94,8.94,0,0,0-4.77-4.77,8.87,8.87,0,0,0-3.48-.7H678.22v-6.92h15.58v5.6h11.7v-8.34a8.9,8.9,0,0,0-2.63-6.33Z" transform="translate(-400.32 -439.53)"/><path class="cls-1" d="M742.19,476.74H722.88V439.53h-11.7v40a8.82,8.82,0,0,0,.71,3.48,8.94,8.94,0,0,0,8.25,5.47h24.8a8.78,8.78,0,0,0,3.48-.71,8.93,8.93,0,0,0,5.47-8.25v-40h-11.7Z" transform="translate(-400.32 -439.53)"/><polygon class="cls-1" points="391.51 0 391.51 28.39 369.51 0 359.21 0 359.21 48.91 370.91 48.91 370.91 20.52 392.92 48.91 403.21 48.91 403.21 0 391.51 0"/><polygon class="cls-1" points="0 123.31 11.7 123.31 11.7 104.72 33.4 104.72 33.4 93.02 11.7 93.02 11.7 86.1 37.13 86.1 37.13 74.4 0 74.4 0 123.31"/><path class="cls-1" d="M480.67,516.55a9.36,9.36,0,0,0-2.8-1.89,8.7,8.7,0,0,0-3.51-.73H449.57a8.7,8.7,0,0,0-3.51.73,9.33,9.33,0,0,0-2.81,1.89,8.89,8.89,0,0,0-2.64,6.33v31a8.83,8.83,0,0,0,.71,3.48,8.94,8.94,0,0,0,4.76,4.76,8.8,8.8,0,0,0,3.49.71h24.79a9,9,0,0,0,6.33-2.62,9,9,0,0,0,1.92-2.85,8.83,8.83,0,0,0,.71-3.48v-31a8.89,8.89,0,0,0-2.64-6.33Zm-9.06,9.08v25.51h-19.3V525.63Z" transform="translate(-400.32 -439.53)"/><polygon class="cls-1" points="100.34 74.4 88.64 74.4 88.64 123.31 122.65 123.31 122.65 111.61 100.34 111.61 100.34 74.4"/><rect class="cls-1" x="124.61" y="74.4" width="11.7" height="48.91"/><path class="cls-1" d="M582.34,516.55a9.36,9.36,0,0,0-2.8-1.89,8.7,8.7,0,0,0-3.51-.73H551.23a8.7,8.7,0,0,0-3.51.73,9.33,9.33,0,0,0-2.81,1.89,8.89,8.89,0,0,0-2.64,6.33v31a8.83,8.83,0,0,0,.71,3.48,8.94,8.94,0,0,0,4.76,4.76,8.8,8.8,0,0,0,3.49.71H576a9,9,0,0,0,6.33-2.62,9,9,0,0,0,1.92-2.85,8.83,8.83,0,0,0,.71-3.48v-31a8.89,8.89,0,0,0-2.64-6.33Zm-9.06,9.08v25.51H554V525.63Z" transform="translate(-400.32 -439.53)"/><circle class="cls-2" cx="219.97" cy="108.67" r="14.64"/></svg>