<svg id="Layer_1" data-name="Layer 1" xmlns="http://www.w3.org/2000/svg" viewBox="0 0 221.15 67.63"><defs><style>.cls-1{fill:#ee07f2;}.cls-2{fill:#07f2c7;}</style></defs><title>Human_sun_ncestor</title><polygon class="cls-1" points="6.42 16.63 17.04 16.63 17.04 26.82 23.45 26.82 23.45 0 17.04 0 17.04 10.21 6.42 10.21 6.42 0 0 0 0 26.82 6.42 26.82 6.42 16.63"/><path class="cls-1" d="M515.94,517.12V495.2h-6.42v20.41H498.94V495.2h-6.42v21.91a4.84,4.84,0,0,0,.39,1.91,4.9,4.9,0,0,0,2.61,2.61,4.83,4.83,0,0,0,1.91.39H511a4.92,4.92,0,0,0,3.47-1.43,4.93,4.93,0,0,0,1.05-1.56A4.84,4.84,0,0,0,515.94,517.12Z" transform="translate(-465.97 -495.2)"/><polygon class="cls-1" points="81.65 26.82 81.65 0 75.52 0 67.36 16.11 59.22 0 53.07 0 53.07 26.82 59.48 26.82 59.48 14.14 65.94 26.82 68.8 26.82 75.25 14.14 75.25 26.82 81.65 26.82"/><path class="cls-1" d="M558.35,495.2,548,522h6.63l2.11-5.48h8.68l2.11,5.48h6.63L563.82,495.2Zm.86,14.93,1.88-4.82,1.86,4.82Z" transform="translate(-465.97 -495.2)"/><polygon class="cls-1" points="126.3 15.57 114.22 0 108.58 0 108.58 26.82 114.99 26.82 114.99 11.25 127.06 26.82 132.71 26.82 132.71 0 126.3 0 126.3 15.57"/><path class="cls-1" d="M631.91,496.64h0a5.14,5.14,0,0,0-1.54-1,4.77,4.77,0,0,0-1.92-.4H616.89a4.76,4.76,0,0,0-1.93.4,5.09,5.09,0,0,0-1.53,1,4.87,4.87,0,0,0-1.45,3.47v6.81a4.87,4.87,0,0,0,1.45,3.47,5.12,5.12,0,0,0,1.54,1,4.77,4.77,0,0,0,1.92.4h10.05v3.78h-8.88v-3.06h-6.41v4.56A4.84,4.84,0,0,0,612,519a4.91,4.91,0,0,0,2.61,2.61,4.83,4.83,0,0,0,1.91.39h11.89a4.84,4.84,0,0,0,1.91-.39,4.9,4.9,0,0,0,3-4.52v-6.79a4.83,4.83,0,0,0-.39-1.91,4.9,4.9,0,0,0-2.62-2.62,4.86,4.86,0,0,0-1.91-.39H618.39v-3.8h8.55v3.07h6.41v-4.58a4.88,4.88,0,0,0-1.44-3.47Z" transform="translate(-465.97 -495.2)"/><path class="cls-1" d="M653.48,515.61H642.89V495.2h-6.41v21.91a4.84,4.84,0,0,0,.39,1.91,4.9,4.9,0,0,0,4.52,3H655a4.81,4.81,0,0,0,1.91-.39,4.9,4.9,0,0,0,3-4.52V495.2h-6.41Z" transform="translate(-465.97 -495.2)"/><polygon class="cls-1" points="214.73 0 214.73 15.57 202.66 0 197.01 0 197.01 26.82 203.43 26.82 203.43 11.25 215.5 26.82 221.15 26.82 221.15 0 214.73 0"/><polygon class="cls-1" points="0 67.63 6.42 67.63 6.42 57.44 18.32 57.44 18.32 51.02 6.42 51.02 6.42 47.22 20.36 47.22 20.36 40.81 0 40.81 0 67.63"/><path class="cls-1" d="M510,537.45a5.13,5.13,0,0,0-1.54-1,4.77,4.77,0,0,0-1.93-.4H493a4.77,4.77,0,0,0-1.93.4,5.12,5.12,0,0,0-1.54,1,4.88,4.88,0,0,0-1.45,3.47v17a4.84,4.84,0,0,0,.39,1.91,4.9,4.9,0,0,0,2.61,2.61,4.83,4.83,0,0,0,1.91.39h13.6a4.92,4.92,0,0,0,3.47-1.43,4.93,4.93,0,0,0,1.05-1.56,4.84,4.84,0,0,0,.39-1.91v-17a4.88,4.88,0,0,0-1.45-3.47Zm-5,5v14H494.49v-14Z" transform="translate(-465.97 -495.2)"/><polygon class="cls-1" points="55.03 40.81 48.62 40.81 48.62 67.63 67.27 67.63 67.27 61.22 55.03 61.22 55.03 40.81"/><rect class="cls-1" x="68.35" y="40.81" width="6.42" height="26.82"/><path class="cls-1" d="M565.8,537.45a5.13,5.13,0,0,0-1.54-1,4.77,4.77,0,0,0-1.93-.4h-13.6a4.77,4.77,0,0,0-1.93.4,5.12,5.12,0,0,0-1.54,1,4.88,4.88,0,0,0-1.45,3.47v17a4.84,4.84,0,0,0,.39,1.91,4.9,4.9,0,0,0,2.61,2.61,4.83,4.83,0,0,0,1.91.39h13.6a4.92,4.92,0,0,0,3.47-1.43,4.93,4.93,0,0,0,1.05-1.56,4.84,4.84,0,0,0,.39-1.91v-17a4.88,4.88,0,0,0-1.45-3.47Zm-5,5v14H550.25v-14Z" transform="translate(-465.97 -495.2)"/><path class="cls-2" d="M579.54,542.79l5.41,14h-2l-1.24-3.23h-6.33l-1.24,3.23h-2l5.41-14Zm-3.4,8.79h4.79l-2.39-6.18Z" transform="translate(-465.97 -495.2)"/><path class="cls-2" d="M589.36,556.81h-2v-14h2l8.43,10.87V542.79h2v14h-2l-8.43-10.88Z" transform="translate(-465.97 -495.2)"/><path class="cls-2" d="M603.39,544.79a2,2,0,0,1,.59-1.41,2.14,2.14,0,0,1,.64-.43,1.91,1.91,0,0,1,.78-.16H613a1.91,1.91,0,0,1,.78.16,2.15,2.15,0,0,1,.64.43,2,2,0,0,1,.43.64,2,2,0,0,1,.16.78v1.81h-2v-1.81H605.4v10H613V553h2v1.8a2,2,0,0,1-.16.78,2,2,0,0,1-1.07,1.07,2,2,0,0,1-.78.16H605.4a2,2,0,0,1-.78-.16,2,2,0,0,1-1.07-1.07,2,2,0,0,1-.16-.78Z" transform="translate(-465.97 -495.2)"/><path class="cls-2" d="M618.22,542.79h10.22v2h-8.22v4h7v2h-7v4h8.22v2H618.22Z" transform="translate(-465.97 -495.2)"/><path class="cls-2" d="M633.44,550.81a1.91,1.91,0,0,1-.78-.16,2.11,2.11,0,0,1-.64-.43,2,2,0,0,1-.59-1.41v-4a2,2,0,0,1,.59-1.41,2.14,2.14,0,0,1,.64-.43,1.91,1.91,0,0,1,.78-.16h6.81a1.92,1.92,0,0,1,.78.16,2.15,2.15,0,0,1,.64.43,1.94,1.94,0,0,1,.43.64,2,2,0,0,1,.16.78v1.81h-2v-1.81h-6.81v4h6.81a2,2,0,0,1,.78.16A2,2,0,0,1,642.1,550a2,2,0,0,1,.16.78v4a2,2,0,0,1-.16.78,2,2,0,0,1-.43.64,2,2,0,0,1-.64.43,2,2,0,0,1-.78.16h-7a2,2,0,0,1-.78-.16,2,2,0,0,1-1.07-1.07,2,2,0,0,1-.16-.78V553h2v1.8h7v-4Z" transform="translate(-465.97 -495.2)"/><path class="cls-2" d="M644.66,542.79h11.22v2h-4.61v12h-2v-12h-4.61Z" transform="translate(-465.97 -495.2)"/><path class="cls-2" d="M670.3,554.81a2,2,0,0,1-.16.78,2,2,0,0,1-.43.64,2,2,0,0,1-.64.43,2,2,0,0,1-.78.16h-8a2,2,0,0,1-.78-.16,2,2,0,0,1-1.07-1.07,2,2,0,0,1-.16-.78v-10a2,2,0,0,1,.59-1.41,2.14,2.14,0,0,1,.64-.43,1.91,1.91,0,0,1,.78-.16h8a1.91,1.91,0,0,1,.78.16,2.17,2.17,0,0,1,.64.43,2,2,0,0,1,.59,1.41Zm-10-10v10h8v-10Z" transform="translate(-465.97 -495.2)"/><path class="cls-2" d="M685,547.8q0,2.94-2.5,3.34l2.64,5.67H682.9l-2.6-5.6H675.9v5.6h-2v-14h7.68q3.41,0,3.4,3.41Zm-9.08,1.41h5.56A1.28,1.28,0,0,0,683,547.7v-1.4a1.29,1.29,0,0,0-1.51-1.51H675.9Z" transform="translate(-465.97 -495.2)"/><rect class="cls-2" x="106.15" y="40.81" width="115" height="2.43"/><rect class="cls-2" x="106.15" y="65.2" width="115" height="2.43"/></svg>