<svg id="Ebene_1" data-name="Ebene 1" xmlns="http://www.w3.org/2000/svg" viewBox="0 0 70.42 86.79"><defs><style>.cls-1{fill:none;stroke:#f2f2f2;stroke-linecap:round;stroke-miterlimit:10;}</style></defs><title>kabutor_wh</title><path class="cls-1" d="M69.48,63.38A3.65,3.65,0,0,0,70,61.1a17.5,17.5,0,0,0-3.12-7.43,29.63,29.63,0,0,0-12.36-9.23c-3.46-1.49-7-2.83-10.08-5a20.45,20.45,0,0,1-7-8,18.2,18.2,0,0,1-1.52-5.76,29.94,29.94,0,0,1,0-4.92,7.27,7.27,0,0,1,.69-1.92l-2.5,4.81a50.24,50.24,0,0,0-3.21,13.91,52.23,52.23,0,0,0,.14,9.6,42.79,42.79,0,0,0,4.51,15,45.48,45.48,0,0,0,9.58,12.48,15.79,15.79,0,0,1,2.88,3" transform="translate(-21.45 -17.26)"/><path class="cls-1" d="M57.48,40.58A20.09,20.09,0,0,0,59,36.26,25.17,25.17,0,0,1,68.16,24l5.52-4.08a6.83,6.83,0,0,0-1.18,5.4c.62,4.64,2.38,9,3.7,13.44a26.73,26.73,0,0,1,1.29,9.72A17.35,17.35,0,0,1,75.72,55a2.31,2.31,0,0,0-.48,1.44" transform="translate(-21.45 -17.26)"/><path class="cls-1" d="M22.56,91.22A25.24,25.24,0,0,1,22,84.74c.16-2.89.39-5.79,2.38-8.16,1.25-1.49,2.3-1.54,3.46,0A5.26,5.26,0,0,0,31,78.48a17.69,17.69,0,0,0,6.84.13c1.8-.25,3.6-.55,5.4-.83" transform="translate(-21.45 -17.26)"/><path class="cls-1" d="M89,57.86c-3.72-3.37-7.88-3.65-12.36-1.81-.89.37-1.9.48-2.52,1.33" transform="translate(-21.45 -17.26)"/><path class="cls-1" d="M24.89,97.46a15.73,15.73,0,0,0,10.07,6,5.31,5.31,0,0,0,3.36-.38,3.64,3.64,0,0,0,1.91-2.49,10.33,10.33,0,0,0,.39-3.23q-.09-1.2-.12-2.4v-.72c.44-3,2.42-4.48,5.16-5.3a22.11,22.11,0,0,1,9.47-.28,24.62,24.62,0,0,0,20.3-6.29A16.55,16.55,0,0,0,80.7,73a16.89,16.89,0,0,1,1.55-5.28A16.49,16.49,0,0,1,91.37,60" transform="translate(-21.45 -17.26)"/><path class="cls-1" d="M80.5,60.89a1,1,0,1,1-1-1A1,1,0,0,1,80.5,60.89Z" transform="translate(-21.45 -17.26)"/></svg>