<svg id="Layer_1" data-name="Layer 1" xmlns="http://www.w3.org/2000/svg" viewBox="0 0 184.97 63.54"><defs><style>.cls-1{fill:none;stroke:#a6034f;stroke-miterlimit:10;}</style></defs><title>latest_works</title><path class="cls-1" d="M21.6,93.89,12,75v18.9H8.3V68.11h4l9.82,19.42L32,68.11h4V93.89H32.32V75L22.7,93.89Z" transform="translate(-7.8 -67.61)"/><path class="cls-1" d="M43.55,101.63l4-9.46L40,74.75h3.72l5.59,13.18L55,74.75h3.72l-11.6,26.88Z" transform="translate(-7.8 -67.61)"/><path class="cls-1" d="M77.45,68.11v22.1H90.7v3.69H73.76V68.11Z" transform="translate(-7.8 -67.61)"/><path class="cls-1" d="M94.76,85.53A3.4,3.4,0,0,1,95,84.16,3.71,3.71,0,0,1,95.8,83a3.49,3.49,0,0,1,1.12-.76A3.42,3.42,0,0,1,98.29,82h9.13v-3.7H95.86V74.75h11.56a3.46,3.46,0,0,1,1.38.28,3.52,3.52,0,0,1,1.88,1.88,3.46,3.46,0,0,1,.28,1.38V93.89h-3.54V90.66a3.31,3.31,0,0,1-.36,1.26,3.71,3.71,0,0,1-.78,1,3.62,3.62,0,0,1-1.09.69,3.37,3.37,0,0,1-1.29.25H98.29a3.42,3.42,0,0,1-1.37-.28A3.52,3.52,0,0,1,95,91.74a3.46,3.46,0,0,1-.28-1.38Zm3.52,4.82h9.13V85.53H98.29Z" transform="translate(-7.8 -67.61)"/><path class="cls-1" d="M115.75,74.75h4.67v-5.9H124v5.9h6.29v3.54H124V90.35h6.29v3.54H124a3.42,3.42,0,0,1-1.37-.28,3.68,3.68,0,0,1-1.13-.76,3.5,3.5,0,0,1-1-2.51V78.29h-4.67Z" transform="translate(-7.8 -67.61)"/><path class="cls-1" d="M152.35,86.13H139.68v4.23h12.68v3.54H139.68a3.42,3.42,0,0,1-1.37-.28,3.52,3.52,0,0,1-1.88-1.88,3.46,3.46,0,0,1-.28-1.38V78.29a3.46,3.46,0,0,1,.28-1.38A3.52,3.52,0,0,1,138.31,75a3.42,3.42,0,0,1,1.37-.28h9.13a3.46,3.46,0,0,1,1.38.28,3.52,3.52,0,0,1,1.88,1.88,3.46,3.46,0,0,1,.28,1.38Zm-12.68-7.84v4.3h9.13v-4.3Z" transform="translate(-7.8 -67.61)"/><path class="cls-1" d="M169.81,90.35V85.91h-8.4a3.46,3.46,0,0,1-1.38-.28,3.52,3.52,0,0,1-1.88-1.88,3.46,3.46,0,0,1-.28-1.38V78.29a3.46,3.46,0,0,1,.28-1.38A3.52,3.52,0,0,1,160,75a3.46,3.46,0,0,1,1.38-.28h11.2v3.54h-11.2v4.08h8.4a3.4,3.4,0,0,1,1.38.28,3.71,3.71,0,0,1,1.12.76,3.5,3.5,0,0,1,1,2.51v4.44a3.5,3.5,0,0,1-1,2.51,3.71,3.71,0,0,1-1.12.76,3.4,3.4,0,0,1-1.38.28H157.87V90.35Z" transform="translate(-7.8 -67.61)"/><path class="cls-1" d="M177.76,74.75h4.67v-5.9H186v5.9h6.29v3.54H186V90.35h6.29v3.54H186a3.42,3.42,0,0,1-1.37-.28,3.68,3.68,0,0,1-1.13-.76,3.5,3.5,0,0,1-1-2.51V78.29h-4.67Z" transform="translate(-7.8 -67.61)"/><path class="cls-1" d="M65.66,130.65,57,100.23h4.35l6.75,24.2,6.72-24.2h4.35l6.72,24.2,6.75-24.2h4.35l-8.7,30.42H83.48L77,107.85l-6.53,22.8Z" transform="translate(-7.8 -67.61)"/><path class="cls-1" d="M120,126.47a4.08,4.08,0,0,1-.33,1.63,4.18,4.18,0,0,1-2.21,2.22,4,4,0,0,1-1.63.33H104.59a4,4,0,0,1-1.61-.33,4.15,4.15,0,0,1-2.22-2.22,4.09,4.09,0,0,1-.33-1.63V112.24a4.09,4.09,0,0,1,.33-1.63,4.15,4.15,0,0,1,2.22-2.22,4,4,0,0,1,1.61-.33H115.8a4,4,0,0,1,1.63.33,4.18,4.18,0,0,1,2.21,2.22,4.08,4.08,0,0,1,.33,1.63Zm-15.38-14.23v14.23H115.8V112.24Z" transform="translate(-7.8 -67.61)"/><path class="cls-1" d="M131.08,112.24v18.41h-4.16V108.06h4.16v4a4.18,4.18,0,0,1,2.59-3.68,4.12,4.12,0,0,1,1.59-.31h4.43a4,4,0,0,1,1.62.33,4.37,4.37,0,0,1,1.33.89,4.13,4.13,0,0,1,1.23,3v3.82h-4.18v-3.82Z" transform="translate(-7.8 -67.61)"/><path class="cls-1" d="M164,130.65,153.22,121v9.65h-4.16V99.36h4.16V117l9.91-8.91H169L156.87,119l13,11.69Z" transform="translate(-7.8 -67.61)"/><path class="cls-1" d="M186.55,126.47v-5.24h-9.91a4.09,4.09,0,0,1-1.63-.33,4.15,4.15,0,0,1-2.22-2.22,4.09,4.09,0,0,1-.33-1.63v-4.82a4.09,4.09,0,0,1,.33-1.63,4.15,4.15,0,0,1,2.22-2.22,4.09,4.09,0,0,1,1.63-.33h13.22v4.18H176.64v4.82h9.91a4,4,0,0,1,1.62.33,4.37,4.37,0,0,1,1.33.89,4.13,4.13,0,0,1,1.23,3v5.24a4.13,4.13,0,0,1-1.23,3,4.37,4.37,0,0,1-1.33.89,4,4,0,0,1-1.62.33H172.46v-4.18Z" transform="translate(-7.8 -67.61)"/></svg>