<svg id="Layer_1" data-name="Layer 1" xmlns="http://www.w3.org/2000/svg" viewBox="0 0 181.68 28.36"><defs><style>.cls-1{fill:none;stroke:#280559;stroke-miterlimit:10;}</style></defs><title>letstalk</title><path class="cls-1" d="M15.29,63.76V86.56H29v3.8H11.48V63.76Z" transform="translate(-10.98 -62.5)"/><path class="cls-1" d="M49.86,82.34H36.78V86.7H49.86v3.65H36.78a3.52,3.52,0,0,1-1.41-.29,3.63,3.63,0,0,1-1.94-1.94,3.57,3.57,0,0,1-.29-1.43V74.26a3.57,3.57,0,0,1,.29-1.43,3.63,3.63,0,0,1,1.94-1.94,3.53,3.53,0,0,1,1.41-.29H46.2a3.58,3.58,0,0,1,1.43.29,3.63,3.63,0,0,1,1.94,1.94,3.58,3.58,0,0,1,.29,1.43ZM36.78,74.26v4.43H46.2V74.26Z" transform="translate(-10.98 -62.5)"/><path class="cls-1" d="M54.79,70.6h4.82V64.52h3.65V70.6h6.49v3.65H63.27V86.7h6.49v3.65H63.27a3.52,3.52,0,0,1-1.41-.29,3.79,3.79,0,0,1-1.17-.78,3.61,3.61,0,0,1-1.08-2.59V74.26H54.79Z" transform="translate(-10.98 -62.5)"/><path class="cls-1" d="M78.53,75H75.84l2.73-5.68H75.84V63.76h5.55v5.55Z" transform="translate(-10.98 -62.5)"/><path class="cls-1" d="M98.64,86.7V82.12H90a3.57,3.57,0,0,1-1.43-.29,3.63,3.63,0,0,1-1.94-1.94,3.57,3.57,0,0,1-.29-1.43V74.26a3.57,3.57,0,0,1,.29-1.43,3.63,3.63,0,0,1,1.94-1.94A3.58,3.58,0,0,1,90,70.6h11.55v3.65H90v4.21h8.66a3.51,3.51,0,0,1,1.42.29,3.84,3.84,0,0,1,1.16.78,3.63,3.63,0,0,1,1.08,2.59V86.7a3.63,3.63,0,0,1-1.08,2.59,3.82,3.82,0,0,1-1.16.78,3.5,3.5,0,0,1-1.42.29H86.32V86.7Z" transform="translate(-10.98 -62.5)"/><path class="cls-1" d="M117.46,63.76h21.27v3.8H130V90.36h-3.8V67.56h-8.74Z" transform="translate(-10.98 -62.5)"/><path class="cls-1" d="M140.65,81.73a3.51,3.51,0,0,1,.29-1.42,3.81,3.81,0,0,1,.78-1.16,3.6,3.6,0,0,1,1.16-.79,3.53,3.53,0,0,1,1.41-.29h9.42V74.26H141.78V70.6h11.93a3.58,3.58,0,0,1,1.43.29,3.63,3.63,0,0,1,1.94,1.94,3.58,3.58,0,0,1,.29,1.43v16.1h-3.65V87a3.42,3.42,0,0,1-.37,1.3,3.85,3.85,0,0,1-.81,1.07,3.73,3.73,0,0,1-1.12.71,3.47,3.47,0,0,1-1.34.26h-5.79a3.52,3.52,0,0,1-1.41-.29,3.63,3.63,0,0,1-1.94-1.94,3.58,3.58,0,0,1-.29-1.43Zm3.63,5h9.42v-5h-9.42Z" transform="translate(-10.98 -62.5)"/><path class="cls-1" d="M167.08,63V90.36h-3.63V63Z" transform="translate(-10.98 -62.5)"/><path class="cls-1" d="M186.22,90.36l-9.42-8.44v8.44h-3.63V63h3.63V78.39l8.66-7.79h5.14L180,80.14l11.37,10.22Z" transform="translate(-10.98 -62.5)"/></svg>