<svg id="Layer_1" data-name="Layer 1" xmlns="http://www.w3.org/2000/svg" viewBox="0 0 188.36 49.41"><defs><style>.cls-1{fill:none;stroke:#f2b544;}</style></defs><title>professional_services</title><path class="cls-1" d="M5.81,62.68V44.33h10q4.45,0,4.45,4.47V51.4q0,4.47-4.45,4.47H8.44v6.81Zm2.62-9.43h7.28a2.08,2.08,0,0,0,1.51-.46,2.08,2.08,0,0,0,.46-1.51V48.92a2.08,2.08,0,0,0-.46-1.51A2.08,2.08,0,0,0,15.72,47H8.44Z" transform="translate(-5.31 -43.3)"/><path class="cls-1" d="M26.22,51.57V62.68H23.71V49h2.51v2.41a2.52,2.52,0,0,1,1.56-2.22,2.48,2.48,0,0,1,1-.19h2.67a2.42,2.42,0,0,1,1,.2,2.64,2.64,0,0,1,.8.54,2.49,2.49,0,0,1,.74,1.79v2.3H31.42v-2.3Z" transform="translate(-5.31 -43.3)"/><path class="cls-1" d="M48.86,60.16a2.46,2.46,0,0,1-.2,1,2.52,2.52,0,0,1-1.33,1.34,2.42,2.42,0,0,1-1,.2H39.58a2.43,2.43,0,0,1-1-.2,2.5,2.5,0,0,1-1.34-1.34,2.46,2.46,0,0,1-.2-1V51.57a2.46,2.46,0,0,1,.2-1,2.5,2.5,0,0,1,1.34-1.34,2.43,2.43,0,0,1,1-.2h6.77a2.42,2.42,0,0,1,1,.2,2.52,2.52,0,0,1,1.33,1.34,2.46,2.46,0,0,1,.2,1Zm-9.28-8.59v8.59h6.77V51.57Z" transform="translate(-5.31 -43.3)"/><path class="cls-1" d="M58.11,46.32V49h4.48v2.52H58.11V62.68H55.59V51.57H52.26V49h3.33V46.32a2.42,2.42,0,0,1,.2-1A2.57,2.57,0,0,1,57.14,44a2.43,2.43,0,0,1,1-.2h4.48v2.52Z" transform="translate(-5.31 -43.3)"/><path class="cls-1" d="M77.53,57.15h-9v3h9v2.52h-9a2.43,2.43,0,0,1-1-.2,2.5,2.5,0,0,1-1.34-1.34,2.46,2.46,0,0,1-.2-1V51.57a2.46,2.46,0,0,1,.2-1,2.5,2.5,0,0,1,1.34-1.34,2.43,2.43,0,0,1,1-.2H75a2.46,2.46,0,0,1,1,.2,2.5,2.5,0,0,1,1.34,1.34,2.46,2.46,0,0,1,.2,1Zm-9-5.58v3.06H75V51.57Z" transform="translate(-5.31 -43.3)"/><path class="cls-1" d="M90,60.16V57H84a2.46,2.46,0,0,1-1-.2,2.5,2.5,0,0,1-1.34-1.34,2.46,2.46,0,0,1-.2-1v-2.9a2.46,2.46,0,0,1,.2-1A2.5,2.5,0,0,1,83,49.25a2.46,2.46,0,0,1,1-.2h8v2.52H84v2.9h6a2.42,2.42,0,0,1,1,.2,2.64,2.64,0,0,1,.8.54A2.49,2.49,0,0,1,92.48,57v3.16a2.49,2.49,0,0,1-.74,1.79,2.64,2.64,0,0,1-.8.54,2.42,2.42,0,0,1-1,.2h-8.5V60.16Z" transform="translate(-5.31 -43.3)"/><path class="cls-1" d="M104.64,60.16V57h-6a2.46,2.46,0,0,1-1-.2,2.5,2.5,0,0,1-1.34-1.34,2.46,2.46,0,0,1-.2-1v-2.9a2.46,2.46,0,0,1,.2-1,2.5,2.5,0,0,1,1.34-1.34,2.46,2.46,0,0,1,1-.2h8v2.52h-8v2.9h6a2.42,2.42,0,0,1,1,.2,2.64,2.64,0,0,1,.8.54,2.49,2.49,0,0,1,.74,1.79v3.16a2.49,2.49,0,0,1-.74,1.79,2.64,2.64,0,0,1-.8.54,2.42,2.42,0,0,1-1,.2h-8.5V60.16Z" transform="translate(-5.31 -43.3)"/><path class="cls-1" d="M111.09,43.8h2.78v2.62h-2.78ZM113.73,49V62.68h-2.52V49Z" transform="translate(-5.31 -43.3)"/><path class="cls-1" d="M129.84,60.16a2.46,2.46,0,0,1-.2,1,2.52,2.52,0,0,1-1.33,1.34,2.42,2.42,0,0,1-1,.2h-6.77a2.43,2.43,0,0,1-1-.2,2.5,2.5,0,0,1-1.34-1.34,2.46,2.46,0,0,1-.2-1V51.57a2.46,2.46,0,0,1,.2-1,2.5,2.5,0,0,1,1.34-1.34,2.43,2.43,0,0,1,1-.2h6.77a2.42,2.42,0,0,1,1,.2,2.52,2.52,0,0,1,1.33,1.34,2.46,2.46,0,0,1,.2,1Zm-9.28-8.59v8.59h6.77V51.57Z" transform="translate(-5.31 -43.3)"/><path class="cls-1" d="M146.1,62.68h-2.52V51.57h-7V62.68H134V49h2.51v2.41a2.52,2.52,0,0,1,1.56-2.22,2.48,2.48,0,0,1,1-.19h4.5a2.46,2.46,0,0,1,1,.2,2.5,2.5,0,0,1,1.34,1.34,2.46,2.46,0,0,1,.2,1Z" transform="translate(-5.31 -43.3)"/><path class="cls-1" d="M150.29,56.73a2.42,2.42,0,0,1,.2-1,2.64,2.64,0,0,1,.54-.8,2.48,2.48,0,0,1,.8-.54,2.43,2.43,0,0,1,1-.2h6.5V51.57h-8.23V49h8.23a2.46,2.46,0,0,1,1,.2,2.5,2.5,0,0,1,1.34,1.34,2.46,2.46,0,0,1,.2,1V62.68H159.3v-2.3a2.35,2.35,0,0,1-.26.9,2.64,2.64,0,0,1-.56.74,2.57,2.57,0,0,1-.77.49,2.4,2.4,0,0,1-.92.18h-4a2.43,2.43,0,0,1-1-.2,2.5,2.5,0,0,1-1.34-1.34,2.46,2.46,0,0,1-.2-1Zm2.51,3.43h6.5V56.73h-6.5Z" transform="translate(-5.31 -43.3)"/><path class="cls-1" d="M168.53,43.8V62.68H166V43.8Z" transform="translate(-5.31 -43.3)"/><path class="cls-1" d="M95.1,74.64a2.78,2.78,0,0,0-.84-.56,2.5,2.5,0,0,0-1-.21H84.34a2.5,2.5,0,0,0-1,.21,2.78,2.78,0,0,0-.84.56,2.59,2.59,0,0,0-.77,1.85v5.25a2.59,2.59,0,0,0,.77,1.85,2.78,2.78,0,0,0,.84.56,2.5,2.5,0,0,0,1,.21h8.91v5.23H84.09V87.24H81.46v2.35a2.57,2.57,0,0,0,.2,1,2.62,2.62,0,0,0,1.4,1.4,2.57,2.57,0,0,0,1,.2h9.16a2.57,2.57,0,0,0,1-.2,2.62,2.62,0,0,0,1.4-1.4,2.57,2.57,0,0,0,.2-1V84.36a2.57,2.57,0,0,0-.2-1,2.62,2.62,0,0,0-1.4-1.4,2.57,2.57,0,0,0-1-.2H84.34V76.49h8.91v2.37h2.62V76.49a2.59,2.59,0,0,0-.77-1.85Z" transform="translate(-5.31 -43.3)"/><path class="cls-1" d="M111.13,79.32a2.54,2.54,0,0,0-.8-.54,2.46,2.46,0,0,0-1-.2h-6.5a2.43,2.43,0,0,0-1,.2,2.5,2.5,0,0,0-1.34,1.34,2.46,2.46,0,0,0-.2,1v8.59a2.46,2.46,0,0,0,.2,1A2.5,2.5,0,0,0,101.87,92a2.43,2.43,0,0,0,1,.2h9V89.69h-9v-3h9V81.11a2.46,2.46,0,0,0-.2-1A2.54,2.54,0,0,0,111.13,79.32Zm-1.79,4.84h-6.5V81.11h6.5Z" transform="translate(-5.31 -43.3)"/><path class="cls-1" d="M125.54,79.32a2.64,2.64,0,0,0-.8-.54,2.42,2.42,0,0,0-1-.2h-2.67a2.48,2.48,0,0,0-1,.19,2.51,2.51,0,0,0-.79.51,2.55,2.55,0,0,0-.77,1.71V78.59h-2.51V92.21h2.51V81.11h5.2v2.3h2.52v-2.3a2.49,2.49,0,0,0-.74-1.79Z" transform="translate(-5.31 -43.3)"/><polygon class="cls-1" points="129.29 45.89 125.16 35.28 122.53 35.28 127.99 48.91 130.61 48.91 136.06 35.28 133.44 35.28 129.29 45.89"/><rect class="cls-1" x="138.68" y="30.04" width="2.78" height="2.62"/><rect class="cls-1" x="138.81" y="35.28" width="2.52" height="13.63"/><path class="cls-1" d="M161.76,79.32a2.54,2.54,0,0,0-.8-.54,2.46,2.46,0,0,0-1-.2h-6.5a2.43,2.43,0,0,0-1,.2,2.5,2.5,0,0,0-1.34,1.34,2.46,2.46,0,0,0-.2,1v8.59a2.46,2.46,0,0,0,.2,1A2.5,2.5,0,0,0,152.51,92a2.43,2.43,0,0,0,1,.2H160a2.46,2.46,0,0,0,1-.2,2.5,2.5,0,0,0,1.34-1.34,2.46,2.46,0,0,0,.2-1v-2.3H160v2.3h-6.5V81.11H160v2.3h2.52v-2.3a2.46,2.46,0,0,0-.2-1A2.54,2.54,0,0,0,161.76,79.32Z" transform="translate(-5.31 -43.3)"/><path class="cls-1" d="M177.49,79.32a2.54,2.54,0,0,0-.8-.54,2.46,2.46,0,0,0-1-.2h-6.5a2.43,2.43,0,0,0-1,.2,2.5,2.5,0,0,0-1.34,1.34,2.46,2.46,0,0,0-.2,1v8.59a2.46,2.46,0,0,0,.2,1A2.5,2.5,0,0,0,168.23,92a2.43,2.43,0,0,0,1,.2h9V89.69h-9v-3h9V81.11a2.46,2.46,0,0,0-.2-1A2.54,2.54,0,0,0,177.49,79.32Zm-1.79,4.84h-6.5V81.11h6.5Z" transform="translate(-5.31 -43.3)"/><path class="cls-1" d="M193,85.55a2.48,2.48,0,0,0-.54-.8,2.64,2.64,0,0,0-.8-.54,2.42,2.42,0,0,0-1-.2h-6v-2.9h8V78.59h-8a2.46,2.46,0,0,0-1,.2,2.5,2.5,0,0,0-1.34,1.34,2.46,2.46,0,0,0-.2,1V84a2.46,2.46,0,0,0,.2,1,2.5,2.5,0,0,0,1.34,1.34,2.46,2.46,0,0,0,1,.2h6v3.16h-8.5v2.52h8.5a2.42,2.42,0,0,0,1-.2,2.64,2.64,0,0,0,.8-.54,2.49,2.49,0,0,0,.74-1.79V86.53A2.46,2.46,0,0,0,193,85.55Z" transform="translate(-5.31 -43.3)"/></svg>