<svg id="Layer_1" data-name="Layer 1" xmlns="http://www.w3.org/2000/svg" viewBox="0 0 169.58 39.25"><defs><style>.cls-1{fill:none;stroke:#ee07f2;stroke-miterlimit:10;}</style></defs><title>snp</title><path class="cls-1" d="M22.77,38.5a2.07,2.07,0,0,1-.84-.17,2.31,2.31,0,0,1-.69-.47,2.15,2.15,0,0,1-.64-1.53V32a2.15,2.15,0,0,1,.64-1.53,2.31,2.31,0,0,1,.69-.47,2.07,2.07,0,0,1,.84-.17h7.38A2.07,2.07,0,0,1,31,30a2.31,2.31,0,0,1,.69.47A2.15,2.15,0,0,1,32.32,32v2H30.15V32H22.77v4.35h7.38a2.12,2.12,0,0,1,.84.17,2.17,2.17,0,0,1,1.16,1.16,2.12,2.12,0,0,1,.17.84v4.33a2.12,2.12,0,0,1-.17.84A2.17,2.17,0,0,1,31,44.84a2.12,2.12,0,0,1-.84.17H22.56a2.12,2.12,0,0,1-.84-.17,2.17,2.17,0,0,1-1.16-1.16,2.12,2.12,0,0,1-.17-.84v-2h2.17v2h7.59V38.5Z" transform="translate(-19.88 -28.88)"/><path class="cls-1" d="M45.57,40.43H38.09v2.49h7.47V45H38.09a2,2,0,0,1-.81-.16,2.07,2.07,0,0,1-1.11-1.11,2,2,0,0,1-.16-.82V35.81a2,2,0,0,1,.16-.82,2.07,2.07,0,0,1,1.11-1.11,2,2,0,0,1,.81-.16h5.38a2,2,0,0,1,.82.16A2.07,2.07,0,0,1,45.4,35a2,2,0,0,1,.16.82Zm-7.47-4.62v2.53h5.38V35.81Z" transform="translate(-19.88 -28.88)"/><path class="cls-1" d="M59,45H56.94v-9.2H51.12V45H49V33.72h2.08v2a2.09,2.09,0,0,1,1.29-1.84,2.06,2.06,0,0,1,.79-.15h3.73a2,2,0,0,1,.82.16A2.07,2.07,0,0,1,58.86,35a2,2,0,0,1,.16.82Z" transform="translate(-19.88 -28.88)"/><path class="cls-1" d="M69.32,42.92V40.3H64.37a2,2,0,0,1-.82-.16A2.07,2.07,0,0,1,62.44,39a2,2,0,0,1-.16-.82V35.81a2,2,0,0,1,.16-.82,2.07,2.07,0,0,1,1.11-1.11,2,2,0,0,1,.82-.16H71v2.09h-6.6v2.41h4.95a2,2,0,0,1,.81.16,2.18,2.18,0,0,1,.66.45,2.06,2.06,0,0,1,.61,1.48v2.62a2.06,2.06,0,0,1-.61,1.48,2.18,2.18,0,0,1-.66.45,2,2,0,0,1-.81.16h-7V42.92Z" transform="translate(-19.88 -28.88)"/><path class="cls-1" d="M84.21,40.43H76.74v2.49h7.47V45H76.74a2,2,0,0,1-.81-.16,2.07,2.07,0,0,1-1.11-1.11,2,2,0,0,1-.16-.82V35.81a2,2,0,0,1,.16-.82,2.07,2.07,0,0,1,1.11-1.11,2,2,0,0,1,.81-.16h5.38a2,2,0,0,1,.82.16A2.07,2.07,0,0,1,84,35a2,2,0,0,1,.16.82Zm-7.47-4.62v2.53h5.38V35.81Z" transform="translate(-19.88 -28.88)"/><path class="cls-1" d="M101.13,29.81,107,45h-2.17l-1.35-3.5H96.62L95.27,45H93.1L99,29.81Zm-3.69,9.53h5.19l-2.59-6.7Z" transform="translate(-19.88 -28.88)"/><path class="cls-1" d="M119.37,45h-2.09v-9.2h-5.82V45h-2.08V33.72h2.08v2a2.09,2.09,0,0,1,1.29-1.84,2.06,2.06,0,0,1,.79-.15h3.73a2,2,0,0,1,.82.16A2.07,2.07,0,0,1,119.21,35a2,2,0,0,1,.16.82Z" transform="translate(-19.88 -28.88)"/><path class="cls-1" d="M122.85,35.81A2,2,0,0,1,123,35a2.07,2.07,0,0,1,1.11-1.11,2,2,0,0,1,.81-.16h5.82V29.38h2.09V45h-2.09V43.1a2,2,0,0,1-.21.74,2.19,2.19,0,0,1-.46.61,2.13,2.13,0,0,1-.64.41,2,2,0,0,1-.76.15h-3.74a2,2,0,0,1-.81-.16A2.07,2.07,0,0,1,123,43.74a2,2,0,0,1-.16-.82Zm2.08,7.11h5.82V35.81h-5.82Z" transform="translate(-19.88 -28.88)"/><path class="cls-1" d="M65.41,52.43H57.09v15.2h2.17V62h6.15q3.69,0,3.69-3.7V56.13Q69.1,52.43,65.41,52.43Zm1.52,5.75a1.39,1.39,0,0,1-1.63,1.63h-6V54.6h6a1.39,1.39,0,0,1,1.63,1.63Z" transform="translate(-19.88 -28.88)"/><path class="cls-1" d="M79.82,65.54H74v-9.2H71.92v9.2a2,2,0,0,0,.16.82,2.07,2.07,0,0,0,1.11,1.11,2,2,0,0,0,.81.16h3.74a2,2,0,0,0,.76-.15,2.13,2.13,0,0,0,.64-.41,2.19,2.19,0,0,0,.46-.61,2,2,0,0,0,.21-.74v1.91H81.9V56.34H79.82Z" transform="translate(-19.88 -28.88)"/><path class="cls-1" d="M94.75,57a2.1,2.1,0,0,0-.66-.45,2,2,0,0,0-.82-.16H89.55a2.06,2.06,0,0,0-.79.15,2.08,2.08,0,0,0-.65.42,2.11,2.11,0,0,0-.64,1.41V52H85.38V65.54a2,2,0,0,0,.16.82,2.07,2.07,0,0,0,1.11,1.11,2,2,0,0,0,.81.16h5.82a2,2,0,0,0,.82-.16,2.07,2.07,0,0,0,1.11-1.11,2,2,0,0,0,.16-.82V58.43a2,2,0,0,0-.16-.82A2.1,2.1,0,0,0,94.75,57Zm-1.48,8.59H87.46V58.43h5.82Z" transform="translate(-19.88 -28.88)"/><rect class="cls-1" x="78.96" y="23.12" width="2.08" height="15.63"/><rect class="cls-1" x="84.51" y="23.12" width="2.3" height="2.17"/><rect class="cls-1" x="84.61" y="27.47" width="2.09" height="11.29"/><path class="cls-1" d="M119.11,57a2.1,2.1,0,0,0-.66-.45,2,2,0,0,0-.82-.16h-5.38a2,2,0,0,0-.81.16,2.07,2.07,0,0,0-1.11,1.11,2,2,0,0,0-.16.82v7.11a2,2,0,0,0,.16.82,2.07,2.07,0,0,0,1.11,1.11,2,2,0,0,0,.81.16h5.38a2,2,0,0,0,.82-.16,2.07,2.07,0,0,0,1.11-1.11,2,2,0,0,0,.16-.82V63.63h-2.09v1.91h-5.38V58.43h5.38v1.91h2.09V58.43a2,2,0,0,0-.16-.82A2.1,2.1,0,0,0,119.11,57Z" transform="translate(-19.88 -28.88)"/><path class="cls-1" d="M132.13,57a2.1,2.1,0,0,0-.66-.45,2,2,0,0,0-.82-.16h-6.81v2.09h6.81v2.18h-5.38a2,2,0,0,0-.81.16,2.06,2.06,0,0,0-.66.45,2.18,2.18,0,0,0-.45.66,2,2,0,0,0-.16.81v2.84a2,2,0,0,0,.16.82,2.07,2.07,0,0,0,1.11,1.11,2,2,0,0,0,.81.16h3.31a2,2,0,0,0,.76-.15,2.13,2.13,0,0,0,.64-.41,2.19,2.19,0,0,0,.46-.61,2,2,0,0,0,.21-.74v1.91h2.09v-9.2a2,2,0,0,0-.16-.82A2.1,2.1,0,0,0,132.13,57Zm-1.48,8.59h-5.38V62.7h5.38Z" transform="translate(-19.88 -28.88)"/><path class="cls-1" d="M140.41,52.87h-2.09v3.48h-2.76v2.09h2.76v7.11a2.06,2.06,0,0,0,.61,1.48,2.17,2.17,0,0,0,.67.45,2,2,0,0,0,.81.16h3.71V65.54h-3.71V58.43h3.71V56.34h-3.71Z" transform="translate(-19.88 -28.88)"/><rect class="cls-1" x="127.71" y="23.12" width="2.3" height="2.17"/><rect class="cls-1" x="127.81" y="27.47" width="2.09" height="11.29"/><path class="cls-1" d="M162.52,57a2.12,2.12,0,0,0-.66-.45,2,2,0,0,0-.81-.16h-5.61a2,2,0,0,0-.81.16,2.07,2.07,0,0,0-1.11,1.11,2,2,0,0,0-.16.82v7.11a2,2,0,0,0,.16.82,2.07,2.07,0,0,0,1.11,1.11,2,2,0,0,0,.81.16h5.61a2,2,0,0,0,.81-.16,2.09,2.09,0,0,0,1.1-1.11,2,2,0,0,0,.16-.82V58.43a2,2,0,0,0-.16-.82A2.1,2.1,0,0,0,162.52,57Zm-1.47,8.59h-5.61V58.43h5.61Z" transform="translate(-19.88 -28.88)"/><path class="cls-1" d="M176,57a2.1,2.1,0,0,0-.66-.45,2,2,0,0,0-.82-.16h-3.73a2.06,2.06,0,0,0-.79.15,2.08,2.08,0,0,0-.65.42,2.11,2.11,0,0,0-.64,1.41v-2H166.6V67.63h2.08v-9.2h5.82v9.2h2.09v-9.2a2,2,0,0,0-.16-.82A2.1,2.1,0,0,0,176,57Z" transform="translate(-19.88 -28.88)"/><path class="cls-1" d="M188.8,62.11a2.06,2.06,0,0,0-.45-.66,2.18,2.18,0,0,0-.66-.45,2,2,0,0,0-.81-.16h-4.95V58.43h6.6V56.34h-6.6a2,2,0,0,0-.82.16A2.07,2.07,0,0,0,180,57.61a2,2,0,0,0-.16.82v2.41a2,2,0,0,0,.16.82,2.07,2.07,0,0,0,1.11,1.11,2,2,0,0,0,.82.16h4.95v2.62h-7v2.09h7a2,2,0,0,0,.81-.16,2.18,2.18,0,0,0,.66-.45,2.06,2.06,0,0,0,.61-1.48V62.92A2,2,0,0,0,188.8,62.11Z" transform="translate(-19.88 -28.88)"/></svg>