<svg id="Layer_1" data-name="Layer 1" xmlns="http://www.w3.org/2000/svg" viewBox="0 0 581 630.26"><title>svg_logo</title><path d="M258.21,197.24q-5.07,0-11.4,15.19t-11.39,42.42A289.93,289.93,0,0,0,230.36,308q0,26,.63,36.72,34.81-58.24,34.82-114Q265.81,197.24,258.21,197.24Z" transform="translate(0 0.13)" style="fill:#105a63"/><path d="M0-.13V630.13H581V-.13Zm413.64,386q-24.38,77.25-60.78,119.34t-73.12,42.1q-52.56,0-71.54-45.58-13.3-31-20.89-78.51-19,21.54-25.33,29.44t-11.39,7.91q-7.6,0-7.6-6.33,0-3.8,3.8-7.6,22.15-22.16,38-40.52a553,553,0,0,1-5.07-76.92,372.9,372.9,0,0,1,7.6-76.92q7.59-36.09,25.64-60.46t44.63-24.38q32.29,0,32.29,55.08,0,70.91-57,146.25,4.42,57,22.16,107,7,20.27,15.51,30.07t24.06,9.81q15.51,0,34.82-21.21T365.2,439.4q16.46-33.86,27.86-81.67A428.48,428.48,0,0,0,404.46,258q0-51.91-7.6-73.12t-26-38.3q-24.07-20.26-24.06-39.89,0-9.49,7.91-16.78t16.14-7.28q20.89,0,35.14,13.29T426.61,132Q438,171.92,438,219.4,438,308.66,413.64,385.9Z" transform="translate(0 0.13)" style="fill:#105a63"/></svg>